<svg width="17" height="12" viewBox="0 0 17 12" fill="none" xmlns="http://www.w3.org/2000/svg">
<g clip-path="url(#clip0_3_37)">
<path d="M258.923 -123.25H-26.1538V32.5833H258.923V-123.25Z" fill="#D8D8D8"/>
<path d="M17 0.5H0V1.71917H17V0.5Z" fill="#DC4437"/>
<path d="M17 2.94751H0V4.16668H17V2.94751Z" fill="#DC4437"/>
<path d="M17 7.83334H0V9.05251H17V7.83334Z" fill="#DC4437"/>
<path d="M17 10.2808H0V11.5H17V10.2808Z" fill="#DC4437"/>
<path d="M17 5.38583H0V6.605H17V5.38583Z" fill="#DC4437"/>
<path d="M17 1.71918H0V2.93834H17V1.71918Z" fill="white"/>
<path d="M17 4.16666H0V5.38582H17V4.16666Z" fill="white"/>
<path d="M17 9.05249H0V10.2717H17V9.05249Z" fill="white"/>
<path d="M17 6.61417H0V7.83333H17V6.61417Z" fill="white"/>
<path d="M9.15385 0.5H0V6.61417H9.15385V0.5Z" fill="#2A66B7"/>
<path d="M1.76538 0.866669L2.06615 1.31584L2.74615 1.38917L2.24922 1.74667L2.36691 2.24167L1.76538 2.00334L1.16384 2.24167L1.28153 1.74667L0.784607 1.38917L1.46461 1.31584L1.76538 0.866669Z" fill="white"/>
<path d="M4.44616 0.866669L4.74693 1.31584L5.42693 1.38917L4.94309 1.74667L5.0477 2.24167L4.44616 2.00334L3.84462 2.24167L3.94924 1.74667L3.46539 1.38917L4.14539 1.31584L4.44616 0.866669Z" fill="white"/>
<path d="M7.12692 0.866669L7.42769 1.31584L8.10769 1.38917L7.61076 1.74667L7.72846 2.24167L7.12692 2.00334L6.52538 2.24167L6.64307 1.74667L6.14615 1.38917L6.82615 1.31584L7.12692 0.866669Z" fill="white"/>
<path d="M3.13845 2.70001L3.43922 3.14918L4.11922 3.22251L3.63538 3.58001L3.73999 4.07501L3.13845 3.83668L2.53692 4.07501L2.64153 3.58001L2.15768 3.22251L2.83768 3.14918L3.13845 2.70001Z" fill="white"/>
<path d="M5.81924 2.70001L6.12001 3.14918L6.80001 3.22251L6.30309 3.58001L6.42078 4.07501L5.81924 3.83668L5.2177 4.07501L5.33539 3.58001L4.83847 3.22251L5.51847 3.14918L5.81924 2.70001Z" fill="white"/>
<path d="M1.76538 4.64334L2.06615 5.09251L2.74615 5.16584L2.24922 5.51417L2.36691 6.01834L1.76538 5.78001L1.16384 6.01834L1.28153 5.51417L0.784607 5.16584L1.46461 5.09251L1.76538 4.64334Z" fill="white"/>
<path d="M4.44616 4.64334L4.74693 5.09251L5.42693 5.16584L4.94309 5.51417L5.0477 6.01834L4.44616 5.78001L3.84462 6.01834L3.94924 5.51417L3.46539 5.16584L4.14539 5.09251L4.44616 4.64334Z" fill="white"/>
<path d="M7.12692 4.64334L7.42769 5.09251L8.10769 5.16584L7.61076 5.51417L7.72846 6.01834L7.12692 5.78001L6.52538 6.01834L6.64307 5.51417L6.14615 5.16584L6.82615 5.09251L7.12692 4.64334Z" fill="white"/>
</g>
<defs>
<clipPath id="clip0_3_37">
<rect width="17" height="11" fill="white" transform="translate(0 0.5)"/>
</clipPath>
</defs>
</svg>
