<svg width="40" height="41" viewBox="0 0 40 41" fill="none" xmlns="http://www.w3.org/2000/svg">
<g clip-path="url(#clip0_3_885)">
<path d="M18.7564 0.598114C18.7564 1.949 18.7564 5.37172 18.7564 6.7261C19.6301 6.7261 20.3682 6.7261 21.2419 6.7261C21.2419 5.3718 21.2419 1.94908 21.2419 0.598114C20.3682 0.598114 19.6284 0.598114 18.7564 0.598114ZM7.12015 6.44289C8.07792 7.40067 10.5017 9.8244 11.4578 10.7788C12.0757 10.1626 12.5993 9.63731 13.2189 9.02458C12.2612 8.06505 9.83743 5.64132 8.87957 4.68347C8.26334 5.30138 7.73805 5.82666 7.12015 6.44289ZM26.7828 9.02275C27.3991 9.63556 27.9243 10.1608 28.5423 10.777C29.5 9.81747 31.9203 7.39717 32.8782 6.44106C32.262 5.82658 31.735 5.30472 31.1188 4.68339C30.1627 5.64124 27.7406 8.06497 26.7828 9.02275ZM30.8372 16.3163C30.8372 17.1935 30.8372 17.9315 30.8372 18.8069C32.1899 18.8069 35.616 18.8069 36.9686 18.8069C36.9686 17.9315 36.9686 17.1934 36.9686 16.3163C35.616 16.3163 32.1899 16.3163 30.8372 16.3163ZM3.03312 16.3163C3.03312 17.1935 3.03137 17.9315 3.03137 18.8035C4.38401 18.8053 7.8119 18.8053 9.16446 18.8087C9.16446 17.9333 9.16446 17.1951 9.16446 16.318C7.8119 16.3163 4.38401 16.3163 3.03312 16.3163Z" fill="#6FDA44"/>
<path d="M25.4731 26.4402H14.532C12.5786 26.4402 10.9754 28.2375 10.9754 30.4346V40.5981H29.0314V30.4346C29.0297 28.2375 27.4299 26.4402 25.4731 26.4402Z" fill="#6FDA44"/>
<path d="M19.9957 24.6774C23.4218 24.6774 26.1838 21.9138 26.1838 18.5013C26.1838 15.0855 23.4219 12.3202 19.9957 12.3202C16.5884 12.3202 13.8266 15.082 13.8266 18.5013C13.8282 21.912 16.5867 24.6774 19.9957 24.6774Z" fill="#6FDA44"/>
</g>
<defs>
<clipPath id="clip0_3_885">
<rect width="40" height="40" fill="white" transform="translate(0 0.598114)"/>
</clipPath>
</defs>
</svg>
