<svg width="40" height="41" viewBox="0 0 40 41" fill="none" xmlns="http://www.w3.org/2000/svg">
<path d="M25.8333 13.0981C25.8333 16.3198 23.2217 18.9314 20 18.9314C16.7783 18.9314 14.1667 16.3198 14.1667 13.0981C14.1667 9.87644 16.7783 7.26477 20 7.26477C23.2217 7.26477 25.8333 9.87644 25.8333 13.0981Z" fill="#6FDA44"/>
<path opacity="0.4" d="M32.5 13.0981C32.5 15.3993 30.6345 17.2648 28.3333 17.2648C26.0322 17.2648 24.1667 15.3993 24.1667 13.0981C24.1667 10.7969 26.0322 8.93146 28.3333 8.93146C30.6345 8.93146 32.5 10.7969 32.5 13.0981Z" fill="#6FDA44"/>
<path opacity="0.4" d="M7.5 13.0981C7.5 15.3993 9.36548 17.2648 11.6667 17.2648C13.9678 17.2648 15.8333 15.3993 15.8333 13.0981C15.8333 10.7969 13.9678 8.93146 11.6667 8.93146C9.36548 8.93146 7.5 10.7969 7.5 13.0981Z" fill="#6FDA44"/>
<path d="M30 28.0981C30 31.3198 25.5228 33.9314 20 33.9314C14.4771 33.9314 10 31.3198 10 28.0981C10 24.8764 14.4771 22.2648 20 22.2648C25.5228 22.2648 30 24.8764 30 28.0981Z" fill="#6FDA44"/>
<path opacity="0.4" d="M36.6667 28.0981C36.6667 30.3993 33.6818 32.2648 30 32.2648C26.3182 32.2648 23.3333 30.3993 23.3333 28.0981C23.3333 25.797 26.3182 23.9315 30 23.9315C33.6818 23.9315 36.6667 25.797 36.6667 28.0981Z" fill="#6FDA44"/>
<path opacity="0.4" d="M3.33334 28.0981C3.33334 30.3993 6.3181 32.2648 10 32.2648C13.6819 32.2648 16.6667 30.3993 16.6667 28.0981C16.6667 25.797 13.6819 23.9315 10 23.9315C6.3181 23.9315 3.33334 25.797 3.33334 28.0981Z" fill="#6FDA44"/>
</svg>
