<svg width="40" height="41" viewBox="0 0 40 41" fill="none" xmlns="http://www.w3.org/2000/svg">
<path d="M21.9833 10.5981H11.3167C10.8833 10.5981 10.4667 10.6148 10.0667 10.6648C5.58333 11.0481 3.33333 13.6981 3.33333 18.5815V25.2481C3.33333 31.9148 5.99999 33.2315 11.3167 33.2315H11.9833C12.35 33.2315 12.8333 33.4815 13.05 33.7648L15.05 36.4315C15.9333 37.6148 17.3667 37.6148 18.25 36.4315L20.25 33.7648C20.5 33.4315 20.9 33.2315 21.3167 33.2315H21.9833C26.8667 33.2315 29.5167 30.9981 29.9 26.4981C29.95 26.0981 29.9667 25.6815 29.9667 25.2481V18.5815C29.9667 13.2648 27.3 10.5981 21.9833 10.5981ZM10.8333 23.9315C9.89999 23.9315 9.16666 23.1815 9.16666 22.2648C9.16666 21.3481 9.91666 20.5981 10.8333 20.5981C11.75 20.5981 12.5 21.3481 12.5 22.2648C12.5 23.1815 11.75 23.9315 10.8333 23.9315ZM16.65 23.9315C15.7167 23.9315 14.9833 23.1815 14.9833 22.2648C14.9833 21.3481 15.7333 20.5981 16.65 20.5981C17.5667 20.5981 18.3167 21.3481 18.3167 22.2648C18.3167 23.1815 17.5833 23.9315 16.65 23.9315ZM22.4833 23.9315C21.55 23.9315 20.8167 23.1815 20.8167 22.2648C20.8167 21.3481 21.5667 20.5981 22.4833 20.5981C23.4 20.5981 24.15 21.3481 24.15 22.2648C24.15 23.1815 23.4 23.9315 22.4833 23.9315Z" fill="#6FDA44"/>
<path d="M36.6337 11.9148V18.5815C36.6337 21.9148 35.6003 24.1815 33.5337 25.4315C33.0337 25.7315 32.4503 25.3315 32.4503 24.7481L32.467 18.5815C32.467 11.9148 28.6503 8.09812 21.9837 8.09812L11.8338 8.11479C11.2504 8.11479 10.8504 7.53146 11.1504 7.03146C12.4004 4.96479 14.6671 3.93146 17.9837 3.93146H28.6503C33.967 3.93146 36.6337 6.59812 36.6337 11.9148Z" fill="#6FDA44"/>
</svg>
