<svg width="24" height="20" viewBox="0 0 24 20" fill="none" xmlns="http://www.w3.org/2000/svg">
<path fill-rule="evenodd" clip-rule="evenodd" d="M7.548 19.7959C16.6044 19.7959 21.558 12.4082 21.558 6.00239C21.558 5.79209 21.558 5.58337 21.5436 5.37544C22.5072 4.69019 23.3388 3.83938 24 2.86587C23.1024 3.25811 22.1484 3.51535 21.1728 3.62876C22.2 3.02267 22.9692 2.07048 23.3376 0.946922C22.3704 1.51165 21.3132 1.91022 20.2104 2.12407C18.3456 0.172306 15.2268 0.0777427 13.2432 1.91372C11.9652 3.09753 11.4216 4.86258 11.8188 6.54614C7.86 6.35002 4.1712 4.50935 1.6704 1.4813C0.3636 3.69651 1.032 6.52934 3.1956 7.95181C2.412 7.92935 1.6452 7.72164 0.96 7.34595V7.40747C0.9612 9.71485 2.6136 11.7016 4.9104 12.1588C4.1856 12.3538 3.4248 12.382 2.688 12.2415C3.3324 14.2168 5.1816 15.5698 7.2876 15.6088C5.544 16.9581 3.39 17.6907 1.1724 17.6883C0.7812 17.6871 0.39 17.6647 0 17.6186C2.2524 19.0411 4.872 19.796 7.548 19.7924" fill="#3A3A3A"/>
</svg>
